<svg width="37" height="40" viewBox="0 0 37 40" fill="none" xmlns="http://www.w3.org/2000/svg">
<path d="M0.834344 21.3485L5.01425 17.8547C5.98291 17.0452 7.40667 17.1962 8.19403 18.1917C8.98176 19.1875 8.83486 20.6513 7.8662 21.4607L5.84341 23.1515L20.5299 35.8736C21.4985 36.683 21.6454 38.1468 20.8577 39.1423C20.4111 39.7075 19.7595 40.0004 19.1028 40.0004C18.6018 40.0004 18.0971 39.83 17.6783 39.4796L0.834344 24.9546C0.306723 24.5133 0 23.8511 0 23.1515C0 22.452 0.306723 21.7901 0.834344 21.3485V21.3485Z" fill="white"/>
<path d="M19.3972 7.32817e-05C20.5971 0.00996334 21.5625 1.018 21.5528 2.25197L21.366 37.7835C21.3564 39.0175 20.3755 40.0095 19.1756 39.9996C18.8715 39.9974 18.5828 39.9308 18.3209 39.8129C17.5494 39.4648 17.0126 38.6694 17.0196 37.7478L17.2068 2.21659C17.2164 0.982613 18.1969 -0.00981677 19.3972 7.32817e-05V7.32817e-05Z" fill="white"/>
<path d="M28.9335 24.441L30.4771 23.1508L24.9789 18.5546C24.0103 17.7451 23.8637 16.2814 24.6511 15.2859C25.4385 14.2897 26.8622 14.139 27.8309 14.9485L35.4858 21.3478C36.0138 21.7894 36.3202 22.4512 36.3202 23.1508C36.3202 23.8503 36.0138 24.5126 35.4858 24.9538L31.7855 28.0471C31.3662 28.3975 30.8619 28.5679 30.361 28.5679C29.7038 28.5679 29.0523 28.275 28.6057 27.7101C27.8183 26.7142 27.9652 25.2509 28.9335 24.441Z" fill="#7B4AE2"/>
</svg>
