<svg width="34" height="33" viewBox="0 0 34 33" fill="none" xmlns="http://www.w3.org/2000/svg">
<path fill-rule="evenodd" clip-rule="evenodd" d="M16.7367 0.333008C7.67314 0.333008 0.332031 7.67411 0.332031 16.7377C0.332031 23.9968 5.02788 30.128 11.5487 32.3017C12.369 32.4452 12.6766 31.9531 12.6766 31.5224C12.6766 31.1328 12.6561 29.841 12.6561 28.4671C8.53438 29.2258 7.46808 27.4623 7.13998 26.5395C6.95543 26.0679 6.1557 24.612 5.4585 24.2224C4.88434 23.9148 4.0641 23.156 5.43799 23.1355C6.72987 23.115 7.65263 24.3249 7.96022 24.817C9.43664 27.2982 11.7948 26.601 12.7381 26.1704C12.8816 25.1041 13.3123 24.3864 13.7839 23.9763C10.1338 23.5662 6.31975 22.1513 6.31975 15.8765C6.31975 14.0925 6.95543 12.616 8.00123 11.4677C7.83718 11.0576 7.26302 9.3761 8.16528 7.12045C8.16528 7.12045 9.53917 6.68983 12.6766 8.80193C13.9889 8.43283 15.3833 8.24828 16.7777 8.24828C18.1721 8.24828 19.5665 8.43283 20.8789 8.80193C24.0163 6.66932 25.3902 7.12045 25.3902 7.12045C26.2925 9.3761 25.7183 11.0576 25.5543 11.4677C26.6001 12.616 27.2357 14.0719 27.2357 15.8765C27.2357 22.1718 23.4011 23.5662 19.7511 23.9763C20.3458 24.4889 20.8584 25.4732 20.8584 27.0112C20.8584 29.2053 20.8379 30.9688 20.8379 31.5224C20.8379 31.9531 21.1455 32.4657 21.9657 32.3017C28.4456 30.128 33.1414 23.9763 33.1414 16.7377C33.1414 7.67411 25.8003 0.333008 16.7367 0.333008Z" fill="white" fill-opacity="0.5"/>
</svg>
